# AST/ASF file generated using VICON BodyLanguage
# -----------------------------------------------
:version 1.10
:name VICON
:units
  mass 1.0
  length 0.45
  angle deg
:documentation
   .ast/.asf automatically generated from VICON data using
   VICON BodyBuilder and BodyLanguage model FoxedUp or BRILLIANT.MOD
:root
   order TX TY TZ RX RY RZ
   axis XYZ
   position 0 0 0  
   orientation 0 0 0 
:bonedata
  begin
     id 1 
     name lhipjoint
     direction 0.693937 -0.600361 0.397515 
     length 2.37164 
     axis 0 0 0  XYZ
  end
  begin
     id 2 
     name lfemur
     direction 0.34202 -0.939693 0  
     length 6.18497  
     axis 0 0 20  XYZ
    dof rx ry rz
    limits (-160.0 20.0)
           (-70.0 70.0)
           (-60.0 70.0)
  end
  begin
     id 3 
     name ltibia
     direction 0.34202 -0.939693 0   
     length 6.91601   
     axis 0 0 20   XYZ
    dof rx
    limits (-10.0 170.0)
  end
  begin
     id 4 
     name lfoot
     direction 0.0978718 -0.2689 0.958182   
     length 1.81453   
     axis -90 7.62852e-016 20   XYZ
    dof rx rz
    limits (-45.0 90.0)
           (-70.0 20.0)
  end
  begin
     id 5 
     name ltoes
     direction 1.53569e-011 -4.21951e-011 1   
     length 0.912052   
     axis -90 7.62852e-016 20   XYZ
    dof rx
    limits (-90.0 20.0)
  end
  begin
     id 6 
     name rhipjoint
     direction -0.643996 -0.637876 0.422354   
     length 2.23216  
     axis 0 0 0  XYZ 
  end
  begin
     id 7 
     name rfemur
     direction -0.34202 -0.939693 0   
     length 6.15404   
     axis 0 0 -20   XYZ
    dof rx ry rz
    limits (-160.0 20.0)
           (-70.0 70.0)
           (-70.0 60.0)
  end
  begin
     id 8 
     name rtibia
     direction -0.34202 -0.939693 0   
     length 6.86744   
     axis 0 0 -20   XYZ
    dof rx
    limits (-10.0 170.0)
 end
 begin
     id 9 
     name rfoot
     direction -0.118701 -0.326127 0.937844   
     length 1.9243  
     axis -90 -7.62852e-016 -20   XYZ
    dof rx rz
    limits (-45.0 90.0)
           (-20.0 70.0)
  end
  begin
     id 10 
     name rtoes
     direction -1.5356e-011 -4.2181e-011 1   
     length 0.958865   
     axis -90 -7.62852e-016 -20   XYZ
    dof rx
    limits (-90.0 20.0)
  end
  begin
     id 11 
     name lowerback
     direction 0.0310826 0.968686 -0.246334   
     length 2.00021   
     axis 0 0 0   XYZ
    dof rx ry rz
    limits (-20.0 45.0)
           (-30.0 30.0)
           (-30.0 30.0)
  end
  begin
     id 12 
     name upperback
     direction -0.0152834 0.999474 -0.0286152   
     length 2.03728   
     axis 0 0 0   XYZ
    dof rx ry rz
    limits (-20.0 45.0)
           (-30.0 30.0)
           (-30.0 30.0)
  end
  begin
     id 13 
     name thorax
     direction -0.0323701 0.996236 0.0804149   
     length 2.16   
     axis 0 0 0   XYZ
    dof rx ry rz
    limits (-20.0 45.0)
           (-30.0 30.0)
           (-30.0 30.0)
  end
  begin
     id 14 
     name lowerneck
     direction 0.0307935 0.982251 0.185027   
     length 1.43558   
     axis 0 0 0   XYZ
    dof rx ry rz
    limits (-20.0 45.0)
           (-30.0 30.0)
           (-30.0 30.0)
  end
  begin
     id 15 
     name upperneck
     direction -0.0927153 0.994775 0.0427454   
     length 1.44603   
     axis 0 0 0   XYZ
    dof rx ry rz
    limits (-20.0 45.0)
           (-30.0 30.0)
           (-30.0 30.0)
  end
  begin
     id 16
     name head
     direction -0.0341265 0.999406 -0.00472033  
     length 1.45931  
     axis 0 0 0   XYZ
    dof rx ry rz
    limits (-20.0 45.0)
           (-30.0 30.0)
           (-30.0 30.0)
  end
  begin
     id 17 
     name lclavicle
     direction 0.820755 0.555306 -0.134151  
     length 2.66075  
     axis 0 0 0   XYZ
    dof ry rz
    limits (-20.0 10.0)
           (0.0 20.0)
  end
  begin
     id 18 
     name lhumerus
     direction 1 -4.48971e-011 5.24853e-027   
     length 5.0546   
     axis -180 -30 -90   XYZ
    dof rx ry rz
    limits (-60.0 90.0)
           (-90.0 90.0)
           (-90.0 90.0)
  end
  begin
     id 19
     name lradius
     direction 1 -4.48971e-011 2.76575e-028   
     length 3.39013   
     axis -180 -30 -90   XYZ
    dof rx
    limits (-10.0 170.0)
  end
  begin
     id 20
     name lwrist
     direction 1 -4.48939e-011 -2.27826e-027   
     length 1.69507   
     axis 2.17013e-015 90 90   XYZ
    dof ry
    limits (-180.0 0.0)
 end
  begin
     id 21 
     name lhand
     direction 1 -4.49009e-011 -4.55652e-027   
     length 0.572425   
     axis 2.90745e-015 90 90   XYZ
    dof rx rz
    limits (-90.0 90.0)
           (-45.0 45.0)
  end
  begin
     id 22 
     name lfingers
     direction 1 -4.48955e-011 -9.11303e-027   
     length 0.461504   
     axis 5.81489e-015 90 90   XYZ
    dof rx
    limits (0.0 90.0)
  end
  begin
     id 23
     name lthumb
     direction 0.707107 -6.34929e-011 0.707107   
     length 0.66263   
     axis -90 45 2.85299e-015   XYZ
    dof rx rz
    limits (-45.0 45.0)
           (-45.0 45.0)
  end
  begin
     id 24 
     name rclavicle
     direction -0.754477 0.632921 -0.173712   
     length 2.73081  
     axis 0 0 0   XYZ 
    dof ry rz
    limits (-10.0 20.0)
           (-20.0 0.0)
  end
  begin
     id 25 
     name rhumerus
     direction -1 -4.48969e-011 5.1496e-027  
     length 5.0701   
     axis -180 30 90   XYZ
    dof rx ry rz
    limits (-90.0 60.0)
           (-90.0 90.0)
           (-90.0 90.0)
  end
  begin
     id 26 
     name rradius
     direction -1 -4.48967e-011 -7.15624e-028   
     length 3.14957   
     axis -180 30 90   XYZ
    dof rx
    limits (-10.0 170.0)
  end
  begin
     id 27 
     name rwrist
     direction -1 -4.48938e-011 -2.27826e-027   
     length 1.57479   
     axis 2.17013e-015 -90 -90   XYZ
    dof ry
    limits (-180.0 0.0)
  end
  begin
     id 28
     name rhand
     direction -1 -4.49008e-011 -4.55652e-027   
     length 0.718191   
     axis 2.90745e-015 -90 -90   XYZ
    dof rx rz
    limits (-90.0 90.0)
           (-45.0 45.0)
  end
  begin
     id 29
     name rfingers
     direction -1 -4.48953e-011 -9.11303e-027   
     length 0.579024   
     axis 5.81489e-015 -90 -90   XYZ
    dof rx
    limits (0.0 90.0)
  end
  begin
     id 30
     name rthumb
     direction -0.707107 -6.34937e-011 0.707107   
     length 0.831366   
     axis -90 -45 -2.85299e-015   XYZ
    dof rx rz
    limits (-45.0 45.0)
           (-45.0 45.0)
  end
:hierarchy
  begin
    root lhipjoint rhipjoint lowerback
    lhipjoint lfemur
    lfemur ltibia
    ltibia lfoot
    lfoot ltoes
    rhipjoint rfemur
    rfemur rtibia
    rtibia rfoot
    rfoot rtoes
    lowerback upperback
    upperback thorax
    thorax lowerneck lclavicle rclavicle
    lowerneck upperneck
    upperneck head
    lclavicle lhumerus
    lhumerus lradius
    lradius lwrist
    lwrist lhand lthumb
    lhand lfingers
    rclavicle rhumerus
    rhumerus rradius
    rradius rwrist
    rwrist rhand rthumb
    rhand rfingers
  end

#!OML:ASF H:\Male1\Project 1\Capture day 1\Session 1\Male1.ASF
:FULLY-SPECIFIED
:DEGREES
1
root 3.12251 15.3672 4.28327 175.398 7.59773 179.156
lowerback 4.68822 4.06352 -0.958969
upperback 4.17685 5.87065 -3.46948
thorax 1.96296 3.15209 -3.18987
lowerneck 3.05403 4.78939 16.0445
upperneck -4.13597 6.75033 -9.61621
head -0.840829 3.32986 -5.5525
rclavicle 5.43676e-014 -7.95139e-015
rhumerus -38.9856 -1.09529 -87.5254
rradius 37.0894
rwrist -0.457696
rhand -9.18616 9.41228
rfingers 7.12502
rthumb 16.7672 -19.8837
lclavicle 5.43676e-014 -7.95139e-015
lhumerus -26.2716 -5.43049 81.8519
lradius 26.2298
lwrist -4.5921
lhand -17.4549 9.92498
lfingers 7.12502
lthumb 8.79642 39.7217
rfemur -6.41156 3.99447 22.2702
rtibia 41.2249
rfoot -26.1932 -16.7491
rtoes -20.6086
lfemur 0.951631 -12.3448 -27.5215
ltibia 19.326
lfoot -24.4098 39.7761
ltoes -1.92913
2
root 3.16649 15.3612 4.29633 174.684 6.47284 179.325
lowerback 6.06918 3.72069 -1.50496
upperback 4.23942 5.37769 -3.33738
thorax 1.17511 2.90496 -2.84983
lowerneck 3.0498 4.7873 15.9192
upperneck -4.02685 6.7537 -9.27019
head -0.825519 3.32799 -5.4227
rclavicle -3.85642e-014 -3.33958e-014
rhumerus -39.2605 0.509559 -88.5638
rradius 37.9715
rwrist -3.95889
rhand -7.19084 11.7711
rfingers 7.12502
rthumb 18.6873 -17.3513
lclavicle -3.85642e-014 -3.33958e-014
lhumerus -26.2964 -5.08395 81.7648
lradius 26.7633
lwrist -3.94421
lhand -17.6285 9.94232
lfingers 7.12502
lthumb 8.62887 39.746
rfemur -6.81533 2.24059 22.2524
rtibia 42.9163
rfoot -24.6146 -16.2628
rtoes -20.126
lfemur 1.74489 -12.442 -27.267
ltibia 19.2698
lfoot -24.0544 38.7413
ltoes -1.41449
3
root 3.21037 15.3401 4.31084 174.011 5.29765 179.5
lowerback 7.39613 3.31031 -2.01582
upperback 4.30337 4.7849 -3.20517
thorax 0.434137 2.6116 -2.49885
lowerneck 3.08676 4.9333 15.884
upperneck -3.9403 6.95732 -9.29111
head -0.780565 3.43473 -5.41977
rclavicle 8.64713e-015 7.63333e-014
rhumerus -39.3765 1.78527 -89.4517
rradius 38.603
rwrist -7.01008
rhand -7.47317 11.6214
rfingers 7.12502
rthumb 18.4157 -17.5268
lclavicle 8.64713e-015 7.63333e-014
lhumerus -26.4101 -4.77306 81.7021
lradius 27.4564
lwrist -2.86121
lhand -18.0241 10.2825
lfingers 7.12502
lthumb 8.24704 40.1016
rfemur -7.27409 0.475869 22.2015
rtibia 44.5879
rfoot -22.7646 -16.1262
rtoes -21.9034
lfemur 2.55154 -11.9334 -26.9715
ltibia 18.9468
lfoot -23.5381 37.6884
ltoes -1.06092
4
root 3.2474 15.3155 4.3115 174.06 4.33442 180.104
lowerback 7.82653 2.97045 -1.88533
upperback 4.23704 4.30386 -3.00203
thorax 0.106417 2.36427 -2.36151
lowerneck 2.64921 5.00915 15.4338
upperneck -3.38812 7.00287 -8.60706
head -0.58376 3.45501 -5.11129
rclavicle 4.40308e-014 -4.69132e-014
rhumerus -39.452 2.79377 -90.1681
rradius 39.1289
rwrist -9.92995
rhand -9.26119 10.5391
rfingers 7.12502
rthumb 16.695 -18.763
lclavicle 4.40308e-014 -4.69132e-014
lhumerus -26.5783 -4.7238 81.7898
lradius 28.2659
lwrist -1.58109
lhand -18.5178 10.616
lfingers 7.12502
lthumb 7.77055 40.4533
rfemur -8.34642 -1.22982 22.5277
rtibia 45.9438
rfoot -20.9836 -16.0102
rtoes -24.2347
lfemur 2.43203 -10.9103 -26.1145
ltibia 18.8795
lfoot -23.2135 37.3285
ltoes -2.29624
5
root 3.27981 15.3059 4.30213 173.899 3.5072 180.369
lowerback 8.38689 2.72461 -1.94006
upperback 4.20811 3.95125 -2.87501
thorax -0.2542 2.18675 -2.2103
lowerneck 1.5577 5.34966 13.4916
upperneck -2.0118 7.30562 -5.964
head -0.149727 3.5996 -4.39407
rclavicle -7.10655e-014 1.66979e-014
rhumerus -39.6926 3.87514 -90.983
rradius 39.8176
rwrist -13.6453
rhand -11.1694 10.0265
rfingers 7.12502
rthumb 14.8573 -19.4208
lclavicle -7.10655e-014 1.66979e-014
lhumerus -26.8642 -4.97367 82.0488
lradius 29.1233
lwrist -0.321118
lhand -18.874 10.8992
lfingers 7.12502
lthumb 7.42676 40.7488
rfemur -9.03608 -2.93872 22.4313
rtibia 46.9418
rfoot -20.0621 -16.571
rtoes -27.6581
lfemur 2.52722 -10.4067 -25.7064
ltibia 18.77
lfoot -20.1361 37.9487
ltoes -9.08943
6
root 3.32386 15.3116 4.30059 174.166 2.41398 180.633
lowerback 8.70073 2.39804 -2.40673
upperback 4.01593 3.43069 -2.56875
thorax -0.683399 1.9045 -1.61489
lowerneck 2.04278 5.45198 11.4358
upperneck -2.53958 7.46645 -4.32794
head -0.540391 3.65965 -3.45339
rclavicle 2.46493e-014 1.51076e-014
rhumerus -40.1962 5.73748 -92.1315
rradius 40.9176
rwrist -19.4189
rhand -13.9087 9.82795
rfingers 7.12502
rthumb 12.2172 -19.7952
lclavicle 2.46493e-014 1.51076e-014
lhumerus -27.2134 -4.94728 82.4518
lradius 29.8956
lwrist 0.618447
lhand -19.0239 11.0276
lfingers 7.12502
lthumb 7.28209 40.8823
rfemur -9.96115 -4.73593 22.5064
rtibia 47.3614
rfoot -19.0114 -19.0749
rtoes -34.75
lfemur 1.8198 -10.0084 -25.0723
ltibia 18.9623
lfoot -12.0465 39.0822
ltoes -25.2618
7
root 3.3567 15.3382 4.2664 174.3 2.13714 180.778
lowerback 8.60472 2.41921 -2.43684
upperback 3.99146 3.45363 -2.51428
thorax -0.661005 1.91212 -1.53958
lowerneck 1.77186 5.43432 11.5053
upperneck -2.35257 7.41149 -4.35033
head -0.432904 3.63526 -3.45977
rclavicle 4.49253e-014 -6.04305e-014
rhumerus -40.3047 5.85627 -92.2321
rradius 41.4777
rwrist -20.024
rhand -13.5185 9.31001
rfingers 7.12502
rthumb 12.5934 -20.2904
lclavicle 4.49253e-014 -6.04305e-014
lhumerus -27.2965 -5.56719 82.7791
lradius 30.5047
lwrist 1.37655
lhand -18.9602 10.9886
lfingers 7.12502
lthumb 7.34361 40.8412
rfemur -10.4905 -5.15328 22.3017
rtibia 47.3509
rfoot -19.3209 -20.1176
rtoes -34.4682
lfemur 1.62763 -10.3174 -24.7682
ltibia 19.1944
lfoot -11.4072 39.1848
ltoes -26.6204
8
root 3.38634 15.3756 4.22743 174.394 1.96941 180.74
lowerback 8.40717 2.43216 -2.55707
upperback 4.00805 3.47043 -2.51093
thorax -0.541825 1.91812 -1.45915
lowerneck 1.73478 5.36352 11.4899
upperneck -2.46033 7.31225 -4.46518
head -0.465754 3.58468 -3.49911
rclavicle -1.56046e-014 -1.66979e-014
rhumerus -40.4383 6.25619 -92.4017
rradius 42.0242
rwrist -20.6377
rhand -15.3267 8.76545
rfingers 7.12502
rthumb 10.8497 -20.9343
lclavicle -1.56046e-014 -1.66979e-014
lhumerus -27.3863 -6.04588 83.0748
lradius 31.0014
lwrist 1.90602
lhand -19.1823 10.713
lfingers 7.12502
lthumb 7.12915 40.573
rfemur -10.7018 -5.25183 21.859
rtibia 46.8675
rfoot -19.0989 -21.4279
rtoes -34.763
lfemur 1.84697 -11.719 -24.7167
ltibia 19.3522
lfoot -22.3166 36.2215
ltoes -3.88201
9
root 3.41536 15.4014 4.18909 174.534 1.90708 180.55
lowerback 8.14284 2.48016 -2.74611
upperback 3.99955 3.52957 -2.53938
thorax -0.413391 1.94373 -1.37393
lowerneck 1.72766 5.3293 11.4785
upperneck -2.51829 7.26555 -4.55045
head -0.484356 3.56157 -3.52822
rclavicle 6.26172e-015 -2.3059e-014
rhumerus -40.5376 6.45152 -92.4382
rradius 42.404
rwrist -20.55
rhand -18.4439 8.06612
rfingers 7.12502
rthumb 7.84189 -21.7684
lclavicle 6.26172e-015 -2.3059e-014
lhumerus -27.5312 -6.34383 83.3732
lradius 31.3981
lwrist 2.1342
lhand -19.6896 10.4657
lfingers 7.12502
lthumb 6.63943 40.3416
rfemur -10.9069 -4.91275 21.1885
rtibia 46.1268
rfoot -19.4052 -22.4908
rtoes -34.1716
lfemur 2.01966 -12.575 -24.8492
ltibia 19.3602
lfoot -11.3031 38.4517
ltoes -26.3015
10
root 3.44328 15.4032 4.15548 173.924 1.87568 180.763
lowerback 8.80868 2.49907 -2.45189
upperback 4.11468 3.57236 -2.41396
thorax -0.651348 1.97713 -1.44594
lowerneck 1.62417 5.38785 11.4594
upperneck -2.35555 7.33216 -4.54447
head -0.408357 3.59938 -3.51379
rclavicle 1.98785e-014 1.59028e-014
rhumerus -40.6969 6.60728 -92.39
rradius 42.6593
rwrist -20.2923
rhand -22.6586 7.7469
rfingers 7.12502
rthumb 3.77282 -22.1994
lclavicle 1.98785e-014 1.59028e-014
lhumerus -27.7761 -6.26401 83.6434
lradius 31.7137
lwrist 1.88281
lhand -19.6842 10.5893
lfingers 7.12502
lthumb 6.64465 40.465
rfemur -10.1883 -4.30828 20.8391
rtibia 45.0984
rfoot -19.8076 -23.2394
rtoes -33.4068
lfemur 2.84364 -12.6877 -24.7319
ltibia 19.4264
lfoot -15.8246 38.0056
ltoes -18.6322
11
root 3.47564 15.4012 4.12819 173.254 1.79084 181.121
lowerback 9.54557 2.52196 -1.75343
upperback 4.31435 3.67609 -2.36854
thorax -0.8096 2.05311 -1.83369
lowerneck 1.57184 5.32671 11.3389
upperneck -2.47949 7.24138 -4.44827
head -0.455397 3.54891 -3.46018
rclavicle -1.02374e-014 -1.03368e-014
rhumerus -40.4707 5.79905 -92.5383
rradius 42.4246
rwrist -19.9008
rhand -23.0115 8.7304
rfingers 7.12502
rthumb 3.432 -21.2217
lclavicle -1.02374e-014 -1.03368e-014
lhumerus -27.7772 -6.39306 83.8194
lradius 31.8891
lwrist 1.60241
lhand -19.4202 10.5209
lfingers 7.12502
lthumb 6.8995 40.3885
rfemur -9.33152 -3.57855 20.6368
rtibia 43.908
rfoot -20.1518 -23.7713
rtoes -32.8966
lfemur 3.90337 -12.9149 -24.44
ltibia 19.1635
lfoot -30.2564 32.9538
ltoes 15.2524
12
root 3.51258 15.3877 4.09946 172.937 1.70772 181.129
lowerback 9.95753 2.5156 -1.64252
upperback 4.33653 3.67386 -2.28828
thorax -1.0107 2.05627 -1.83617
lowerneck 1.66144 5.35843 11.2533
upperneck -2.54431 7.2935 -4.49745
head -0.489005 3.57635 -3.46527
rclavicle -1.59028e-015 -5.1684e-014
rhumerus -40.4587 5.80902 -92.5584
rradius 42.365
rwrist -19.3589
rhand -22.7968 8.72109
rfingers 7.12502
rthumb 3.63938 -21.2276
lclavicle -1.59028e-015 -5.1684e-014
lhumerus -28.0343 -6.42988 84.1165
lradius 31.9982
lwrist 1.7
lhand -19.5749 10.2405
lfingers 7.12502
lthumb 6.75024 40.1129
rfemur -8.8236 -2.92896 20.1036
rtibia 42.5575
rfoot -19.1237 -24.7877
rtoes -35.8882
lfemur 4.55596 -13.0155 -24.4179
ltibia 18.8411
lfoot -29.4661 33.5215
ltoes 12.6596
13
root 3.55255 15.3987 4.06596 173.019 1.69253 181.075
lowerback 9.86547 2.50731 -1.58033
upperback 4.31609 3.66217 -2.23826
thorax -0.981823 2.04669 -1.81322
lowerneck 1.45839 5.47855 11.4277
upperneck -2.41153 7.43233 -4.68545
head -0.383761 3.64929 -3.54976
rclavicle 6.64935e-014 -8.26944e-014
rhumerus -40.3976 6.19782 -92.5823
rradius 42.3632
rwrist -19.1254
rhand -22.7494 8.59498
rfingers 7.12502
rthumb 3.68508 -21.3529
lclavicle 6.64935e-014 -8.26944e-014
lhumerus -28.2415 -6.53378 84.3846
lradius 32.0542
lwrist 2.07936
lhand -19.7863 10.2802
lfingers 7.12502
lthumb 6.54616 40.159
rfemur -8.65971 -1.5024 19.3933
rtibia 41.0977
rfoot -20.3904 -23.8251
rtoes -32.2079
lfemur 4.76684 -13.1202 -24.3574
ltibia 18.5565
lfoot -28.7497 34.0867
ltoes 10.1997
14
root 3.60262 15.4066 4.03762 173.09 1.5734 180.993
lowerback 9.78669 2.45097 -1.7169
upperback 4.32755 3.57247 -2.12204
thorax -0.944089 1.99622 -1.60274
lowerneck 1.30122 5.61249 11.6773
upperneck -2.362 7.59555 -5.06747
head -0.299343 3.73495 -3.71909
rclavicle -4.87022e-015 3.97569e-014
rhumerus -40.3333 6.87942 -92.5437
rradius 42.503
rwrist -19.2172
rhand -22.5231 8.52922
rfingers 7.12502
rthumb 3.90362 -21.4148
lclavicle -4.87022e-015 3.97569e-014
lhumerus -28.4087 -6.32331 84.629
lradius 32.0039
lwrist 2.29675
lhand -19.7649 10.4581
lfingers 7.12502
lthumb 6.56676 40.3363
rfemur -8.44475 -0.022054 18.716
rtibia 39.5729
rfoot -20.3047 -23.4659
rtoes -32.5128
lfemur 5.03322 -13.2387 -24.249
ltibia 18.1728
lfoot -29.7083 33.409
ltoes 12.9949
15
root 3.65471 15.4101 4.01093 173.144 1.41745 180.923
lowerback 9.89958 2.41185 -1.68573
upperback 4.20832 3.50007 -2.05821
thorax -1.13326 1.9528 -1.55739
lowerneck 1.41015 5.66058 11.6488
upperneck -2.35067 7.67384 -5.1494
head -0.305491 3.77807 -3.74474
rclavicle -1.20265e-014 5.48646e-014
rhumerus -40.4964 7.45101 -92.5461
rradius 42.7224
rwrist -19.5915
rhand -22.213 8.30446
rfingers 7.12502
rthumb 4.20306 -21.6338
lclavicle -1.20265e-014 5.48646e-014
lhumerus -28.7992 -6.16688 84.8484
lradius 31.8764
lwrist 2.18673
lhand -19.4998 10.416
lfingers 7.12502
lthumb 6.82269 40.286
rfemur -8.13401 1.5065 18.0457
rtibia 38.0363
rfoot -19.7058 -23.3016
rtoes -34.553
lfemur 5.37649 -13.205 -24.1018
ltibia 17.6149
lfoot -29.4836 33.2588
ltoes 13.1137
